<?xml version="1.0" encoding="UTF-8" standalone="no"?>
<!-- Created with Inkscape (http://www.inkscape.org/) -->

<svg
   width="210mm"
   height="297mm"
   viewBox="0 0 210 297"
   version="1.1"
   id="svg5"
   inkscape:version="1.1.2 (b8e25be833, 2022-02-05)"
   sodipodi:docname="rysunek.svg"
   xmlns:inkscape="http://www.inkscape.org/namespaces/inkscape"
   xmlns:sodipodi="http://sodipodi.sourceforge.net/DTD/sodipodi-0.dtd"
   xmlns="http://www.w3.org/2000/svg"
   xmlns:svg="http://www.w3.org/2000/svg">
  <sodipodi:namedview
     id="namedview7"
     pagecolor="#ffffff"
     bordercolor="#666666"
     borderopacity="1.0"
     inkscape:pageshadow="2"
     inkscape:pageopacity="0.0"
     inkscape:pagecheckerboard="0"
     inkscape:document-units="mm"
     showgrid="false"
     inkscape:zoom="0.25449098"
     inkscape:cx="-1053.0825"
     inkscape:cy="151.28237"
     inkscape:window-width="1920"
     inkscape:window-height="1001"
     inkscape:window-x="-9"
     inkscape:window-y="-9"
     inkscape:window-maximized="1"
     inkscape:current-layer="layer1" />
  <defs
     id="defs2" />
  <g
     inkscape:label="Warstwa 1"
     inkscape:groupmode="layer"
     id="layer1">
    <path
       style="fill:#000000;stroke-width:0.276378"
       d="m 78.022345,288.55234 c -2.307833,-2.01411 -6.135596,-5.32147 -8.506202,-7.34968 C 67.145567,279.17445 56.468989,270.03949 45.79042,260.90283 L 26.374855,244.29065 V 123.43029 2.56997 h 54.446506 54.446499 v 121.40674 121.40677 l -1.58916,1.40525 c -0.87405,0.7729 -12.71524,11.30985 -26.31377,23.41545 -13.598524,12.10559 -24.819556,22.01017 -24.935603,22.01017 -0.116209,0 -2.099179,-1.6479 -4.406982,-3.66201 z M 11.394987,229.12763 2.0808692,220.77059 2.0671592,112.36121 2.053449,3.9518504 h 9.396861 9.396857 V 120.72167 c 0,64.2234 -0.03101,116.76828 -0.0691,116.76642 -0.03799,-0.002 -4.260446,-3.76404 -9.38321,-8.36046 z M 140.79545,120.74318 V 3.9518504 h 9.39684 9.39687 l -0.0126,108.4093596 -0.0125,108.40938 -8.1603,7.32402 c -4.48816,4.0282 -8.71068,7.80008 -9.38335,8.38194 l -1.22304,1.05792 V 120.74318 Z"
       id="path311"
       inkscape:export-filename="D:\Pulpit\path311.png"
       inkscape:export-xdpi="96"
       inkscape:export-ydpi="96" />
  </g>
</svg>
