<?xml version="1.0" encoding="UTF-8" standalone="no"?>
<!-- Created with Inkscape (http://www.inkscape.org/) -->

<svg
   width="210mm"
   height="297mm"
   viewBox="0 0 210 297"
   version="1.1"
   id="svg5"
   inkscape:version="1.1.2 (b8e25be833, 2022-02-05)"
   sodipodi:docname="rysunek_1.svg"
   xmlns:inkscape="http://www.inkscape.org/namespaces/inkscape"
   xmlns:sodipodi="http://sodipodi.sourceforge.net/DTD/sodipodi-0.dtd"
   xmlns="http://www.w3.org/2000/svg"
   xmlns:svg="http://www.w3.org/2000/svg">
  <sodipodi:namedview
     id="namedview7"
     pagecolor="#000000"
     bordercolor="#FFFFFF"
     borderopacity="1.0"
     inkscape:pageshadow="2"
     inkscape:pageopacity="0"
     inkscape:pagecheckerboard="0"
     inkscape:document-units="mm"
     showgrid="false"
     inkscape:zoom="0.063622745"
     inkscape:cx="-2239.765"
     inkscape:cy="730.8707"
     inkscape:window-width="1920"
     inkscape:window-height="1001"
     inkscape:window-x="-9"
     inkscape:window-y="-9"
     inkscape:window-maximized="1"
     inkscape:current-layer="layer1" />
  <defs
     id="defs2" />
  <g
     inkscape:label="Warstwa 1"
     inkscape:groupmode="layer"
     id="layer1">
    <path
       style="fill:#ffffff;stroke-width:0.276378"
       d="m 107.13275,289.592 c -2.30784,-2.01411 -6.1356,-5.32147 -8.506214,-7.34968 -2.37057,-2.02821 -13.04715,-11.16317 -23.72572,-20.29983 L 55.485256,245.33031 V 124.46995 3.6096273 h 54.446504 54.4465 V 125.01637 246.42314 l -1.58916,1.40525 c -0.87405,0.7729 -12.71524,11.30985 -26.31377,23.41545 -13.59852,12.10559 -24.81956,22.01017 -24.9356,22.01017 -0.11621,0 -2.09918,-1.6479 -4.40698,-3.66201 z m -66.627364,-59.42471 -9.31412,-8.35704 -0.0137,-108.40938 -0.0137,-108.4093627 h 9.39686 9.39686 V 121.76133 c 0,64.2234 -0.031,116.76828 -0.0691,116.76642 -0.038,-0.002 -4.26045,-3.76404 -9.38321,-8.36046 z M 169.90585,121.78284 V 4.9915073 h 9.39684 9.39687 l -0.0126,108.4093627 -0.0125,108.40938 -8.1603,7.32402 c -4.48816,4.0282 -8.71068,7.80008 -9.38335,8.38194 l -1.22304,1.05792 V 121.78284 Z"
       id="path311"
       inkscape:export-filename="D:\Pulpit\path311.png"
       inkscape:export-xdpi="96"
       inkscape:export-ydpi="96" />
  </g>
</svg>
